<?xml version="1.0" encoding="utf-8" standalone="no"?>
<!DOCTYPE svg PUBLIC "-//W3C//DTD SVG 1.1//EN"
  "http://www.w3.org/Graphics/SVG/1.1/DTD/svg11.dtd">
<svg xmlns:xlink="http://www.w3.org/1999/xlink" width="1152pt" height="648pt" viewBox="0 0 1152 648" xmlns="http://www.w3.org/2000/svg" version="1.1">
 <metadata>
  <rdf:RDF xmlns:dc="http://purl.org/dc/elements/1.1/" xmlns:cc="http://creativecommons.org/ns#" xmlns:rdf="http://www.w3.org/1999/02/22-rdf-syntax-ns#">
   <cc:Work>
    <dc:type rdf:resource="http://purl.org/dc/dcmitype/StillImage"/>
    <dc:date>2025-08-13T21:49:11.761157</dc:date>
    <dc:format>image/svg+xml</dc:format>
    <dc:creator>
     <cc:Agent>
      <dc:title>Matplotlib v3.9.1, https://matplotlib.org/</dc:title>
     </cc:Agent>
    </dc:creator>
   </cc:Work>
  </rdf:RDF>
 </metadata>
 <defs>
  <style type="text/css">*{stroke-linejoin: round; stroke-linecap: butt}</style>
 </defs>
 <g id="figure_1">
  <g id="patch_1">
   <path d="M 0 648 
L 1152 648 
L 1152 0 
L 0 0 
z
" style="fill: #ffffff"/>
  </g>
  <g id="axes_1">
   <g id="patch_2">
    <path d="M 144 576.72 
L 1036.8 576.72 
L 1036.8 77.76 
L 144 77.76 
z
" style="fill: #ffffff"/>
   </g>
   <g id="matplotlib.axis_1">
    <g id="xtick_1">
     <g id="line2d_1">
      <defs>
       <path id="m8adc575e26" d="M 0 0 
L 0 3.5 
" style="stroke: #000000; stroke-width: 0.8"/>
      </defs>
      <g>
       <use xlink:href="#m8adc575e26" x="183.132468" y="576.72" style="stroke: #000000; stroke-width: 0.8"/>
      </g>
     </g>
     <g id="text_1">
      <!-- 0 -->
      <g transform="translate(179.951218 591.318438) scale(0.1 -0.1)">
       <defs>
        <path id="DejaVuSans-30" d="M 2034 4250 
Q 1547 4250 1301 3770 
Q 1056 3291 1056 2328 
Q 1056 1369 1301 889 
Q 1547 409 2034 409 
Q 2525 409 2770 889 
Q 3016 1369 3016 2328 
Q 3016 3291 2770 3770 
Q 2525 4250 2034 4250 
z
M 2034 4750 
Q 2819 4750 3233 4129 
Q 3647 3509 3647 2328 
Q 3647 1150 3233 529 
Q 2819 -91 2034 -91 
Q 1250 -91 836 529 
Q 422 1150 422 2328 
Q 422 3509 836 4129 
Q 1250 4750 2034 4750 
z
" transform="scale(0.015625)"/>
       </defs>
       <use xlink:href="#DejaVuSans-30"/>
      </g>
     </g>
    </g>
    <g id="xtick_2">
     <g id="line2d_2">
      <g>
       <use xlink:href="#m8adc575e26" x="359.882547" y="576.72" style="stroke: #000000; stroke-width: 0.8"/>
      </g>
     </g>
     <g id="text_2">
      <!-- 5000 -->
      <g transform="translate(347.157547 591.318438) scale(0.1 -0.1)">
       <defs>
        <path id="DejaVuSans-35" d="M 691 4666 
L 3169 4666 
L 3169 4134 
L 1269 4134 
L 1269 2991 
Q 1406 3038 1543 3061 
Q 1681 3084 1819 3084 
Q 2600 3084 3056 2656 
Q 3513 2228 3513 1497 
Q 3513 744 3044 326 
Q 2575 -91 1722 -91 
Q 1428 -91 1123 -41 
Q 819 9 494 109 
L 494 744 
Q 775 591 1075 516 
Q 1375 441 1709 441 
Q 2250 441 2565 725 
Q 2881 1009 2881 1497 
Q 2881 1984 2565 2268 
Q 2250 2553 1709 2553 
Q 1456 2553 1204 2497 
Q 953 2441 691 2322 
L 691 4666 
z
" transform="scale(0.015625)"/>
       </defs>
       <use xlink:href="#DejaVuSans-35"/>
       <use xlink:href="#DejaVuSans-30" x="63.623047"/>
       <use xlink:href="#DejaVuSans-30" x="127.246094"/>
       <use xlink:href="#DejaVuSans-30" x="190.869141"/>
      </g>
     </g>
    </g>
    <g id="xtick_3">
     <g id="line2d_3">
      <g>
       <use xlink:href="#m8adc575e26" x="536.632626" y="576.72" style="stroke: #000000; stroke-width: 0.8"/>
      </g>
     </g>
     <g id="text_3">
      <!-- 10000 -->
      <g transform="translate(520.726376 591.318438) scale(0.1 -0.1)">
       <defs>
        <path id="DejaVuSans-31" d="M 794 531 
L 1825 531 
L 1825 4091 
L 703 3866 
L 703 4441 
L 1819 4666 
L 2450 4666 
L 2450 531 
L 3481 531 
L 3481 0 
L 794 0 
L 794 531 
z
" transform="scale(0.015625)"/>
       </defs>
       <use xlink:href="#DejaVuSans-31"/>
       <use xlink:href="#DejaVuSans-30" x="63.623047"/>
       <use xlink:href="#DejaVuSans-30" x="127.246094"/>
       <use xlink:href="#DejaVuSans-30" x="190.869141"/>
       <use xlink:href="#DejaVuSans-30" x="254.492188"/>
      </g>
     </g>
    </g>
    <g id="xtick_4">
     <g id="line2d_4">
      <g>
       <use xlink:href="#m8adc575e26" x="713.382705" y="576.72" style="stroke: #000000; stroke-width: 0.8"/>
      </g>
     </g>
     <g id="text_4">
      <!-- 15000 -->
      <g transform="translate(697.476455 591.318438) scale(0.1 -0.1)">
       <use xlink:href="#DejaVuSans-31"/>
       <use xlink:href="#DejaVuSans-35" x="63.623047"/>
       <use xlink:href="#DejaVuSans-30" x="127.246094"/>
       <use xlink:href="#DejaVuSans-30" x="190.869141"/>
       <use xlink:href="#DejaVuSans-30" x="254.492188"/>
      </g>
     </g>
    </g>
    <g id="xtick_5">
     <g id="line2d_5">
      <g>
       <use xlink:href="#m8adc575e26" x="890.132784" y="576.72" style="stroke: #000000; stroke-width: 0.8"/>
      </g>
     </g>
     <g id="text_5">
      <!-- 20000 -->
      <g transform="translate(874.226534 591.318438) scale(0.1 -0.1)">
       <defs>
        <path id="DejaVuSans-32" d="M 1228 531 
L 3431 531 
L 3431 0 
L 469 0 
L 469 531 
Q 828 903 1448 1529 
Q 2069 2156 2228 2338 
Q 2531 2678 2651 2914 
Q 2772 3150 2772 3378 
Q 2772 3750 2511 3984 
Q 2250 4219 1831 4219 
Q 1534 4219 1204 4116 
Q 875 4013 500 3803 
L 500 4441 
Q 881 4594 1212 4672 
Q 1544 4750 1819 4750 
Q 2544 4750 2975 4387 
Q 3406 4025 3406 3419 
Q 3406 3131 3298 2873 
Q 3191 2616 2906 2266 
Q 2828 2175 2409 1742 
Q 1991 1309 1228 531 
z
" transform="scale(0.015625)"/>
       </defs>
       <use xlink:href="#DejaVuSans-32"/>
       <use xlink:href="#DejaVuSans-30" x="63.623047"/>
       <use xlink:href="#DejaVuSans-30" x="127.246094"/>
       <use xlink:href="#DejaVuSans-30" x="190.869141"/>
       <use xlink:href="#DejaVuSans-30" x="254.492188"/>
      </g>
     </g>
    </g>
   </g>
   <g id="matplotlib.axis_2">
    <g id="ytick_1">
     <g id="line2d_6">
      <defs>
       <path id="m9df4b7bbd8" d="M 0 0 
L -2 0 
" style="stroke: #000000; stroke-width: 0.6"/>
      </defs>
      <g>
       <use xlink:href="#m9df4b7bbd8" x="144" y="388.153551" style="stroke: #000000; stroke-width: 0.6"/>
      </g>
     </g>
     <g id="text_6">
      <!-- $\mathdefault{2\times10^{0}}$ -->
      <g transform="translate(102.4 391.95277) scale(0.1 -0.1)">
       <defs>
        <path id="DejaVuSans-d7" d="M 4488 3438 
L 3059 2003 
L 4488 575 
L 4116 197 
L 2681 1631 
L 1247 197 
L 878 575 
L 2303 2003 
L 878 3438 
L 1247 3816 
L 2681 2381 
L 4116 3816 
L 4488 3438 
z
" transform="scale(0.015625)"/>
       </defs>
       <use xlink:href="#DejaVuSans-32" transform="translate(0 0.765625)"/>
       <use xlink:href="#DejaVuSans-d7" transform="translate(83.105469 0.765625)"/>
       <use xlink:href="#DejaVuSans-31" transform="translate(186.376953 0.765625)"/>
       <use xlink:href="#DejaVuSans-30" transform="translate(250 0.765625)"/>
       <use xlink:href="#DejaVuSans-30" transform="translate(314.580078 39.046875) scale(0.7)"/>
      </g>
     </g>
    </g>
    <g id="ytick_2">
     <g id="line2d_7">
      <g>
       <use xlink:href="#m9df4b7bbd8" x="144" y="270.314959" style="stroke: #000000; stroke-width: 0.6"/>
      </g>
     </g>
     <g id="text_7">
      <!-- $\mathdefault{3\times10^{0}}$ -->
      <g transform="translate(102.4 274.114178) scale(0.1 -0.1)">
       <defs>
        <path id="DejaVuSans-33" d="M 2597 2516 
Q 3050 2419 3304 2112 
Q 3559 1806 3559 1356 
Q 3559 666 3084 287 
Q 2609 -91 1734 -91 
Q 1441 -91 1130 -33 
Q 819 25 488 141 
L 488 750 
Q 750 597 1062 519 
Q 1375 441 1716 441 
Q 2309 441 2620 675 
Q 2931 909 2931 1356 
Q 2931 1769 2642 2001 
Q 2353 2234 1838 2234 
L 1294 2234 
L 1294 2753 
L 1863 2753 
Q 2328 2753 2575 2939 
Q 2822 3125 2822 3475 
Q 2822 3834 2567 4026 
Q 2313 4219 1838 4219 
Q 1578 4219 1281 4162 
Q 984 4106 628 3988 
L 628 4550 
Q 988 4650 1302 4700 
Q 1616 4750 1894 4750 
Q 2613 4750 3031 4423 
Q 3450 4097 3450 3541 
Q 3450 3153 3228 2886 
Q 3006 2619 2597 2516 
z
" transform="scale(0.015625)"/>
       </defs>
       <use xlink:href="#DejaVuSans-33" transform="translate(0 0.765625)"/>
       <use xlink:href="#DejaVuSans-d7" transform="translate(83.105469 0.765625)"/>
       <use xlink:href="#DejaVuSans-31" transform="translate(186.376953 0.765625)"/>
       <use xlink:href="#DejaVuSans-30" transform="translate(250 0.765625)"/>
       <use xlink:href="#DejaVuSans-30" transform="translate(314.580078 39.046875) scale(0.7)"/>
      </g>
     </g>
    </g>
    <g id="ytick_3">
     <g id="line2d_8">
      <g>
       <use xlink:href="#m9df4b7bbd8" x="144" y="186.707147" style="stroke: #000000; stroke-width: 0.6"/>
      </g>
     </g>
     <g id="text_8">
      <!-- $\mathdefault{4\times10^{0}}$ -->
      <g transform="translate(102.4 190.506366) scale(0.1 -0.1)">
       <defs>
        <path id="DejaVuSans-34" d="M 2419 4116 
L 825 1625 
L 2419 1625 
L 2419 4116 
z
M 2253 4666 
L 3047 4666 
L 3047 1625 
L 3713 1625 
L 3713 1100 
L 3047 1100 
L 3047 0 
L 2419 0 
L 2419 1100 
L 313 1100 
L 313 1709 
L 2253 4666 
z
" transform="scale(0.015625)"/>
       </defs>
       <use xlink:href="#DejaVuSans-34" transform="translate(0 0.765625)"/>
       <use xlink:href="#DejaVuSans-d7" transform="translate(83.105469 0.765625)"/>
       <use xlink:href="#DejaVuSans-31" transform="translate(186.376953 0.765625)"/>
       <use xlink:href="#DejaVuSans-30" transform="translate(250 0.765625)"/>
       <use xlink:href="#DejaVuSans-30" transform="translate(314.580078 39.046875) scale(0.7)"/>
      </g>
     </g>
    </g>
    <g id="ytick_4">
     <g id="line2d_9">
      <g>
       <use xlink:href="#m9df4b7bbd8" x="144" y="121.85589" style="stroke: #000000; stroke-width: 0.6"/>
      </g>
     </g>
    </g>
   </g>
   <g id="line2d_10">
    <path d="M 184.581818 100.44 
L 185.995819 131.861735 
L 187.409819 152.771552 
L 188.82382 168.236797 
L 190.237821 179.264275 
L 191.651821 191.358792 
L 193.065822 200.605924 
L 194.479823 214.69337 
L 195.893823 223.244484 
L 198.721825 247.414385 
L 200.135825 255.989512 
L 201.549826 274.587264 
L 202.963826 277.627897 
L 204.377827 284.742283 
L 205.791828 293.756794 
L 207.205828 323.327756 
L 208.619829 315.248924 
L 210.03383 333.02868 
L 211.44783 342.379757 
L 212.861831 349.89393 
L 214.275831 354.459015 
L 215.689832 376.70233 
L 217.103833 369.042195 
L 218.517833 373.140424 
L 219.931834 395.626718 
L 221.345835 412.18132 
L 222.759835 409.454104 
L 224.173836 408.882369 
L 225.587837 419.337076 
L 227.001837 436.886785 
L 228.415838 428.331659 
L 229.829838 438.890483 
L 231.243839 447.751775 
L 232.65784 454.791809 
L 234.07184 440.468438 
L 235.485841 441.313935 
L 236.899842 455.086558 
L 238.313842 454.809767 
L 239.727843 465.522147 
L 241.141844 463.09099 
L 242.555844 456.220187 
L 243.969845 454.998619 
L 245.383845 474.255615 
L 246.797846 464.703131 
L 248.211847 488.64402 
L 249.625847 466.607713 
L 251.039848 459.14912 
L 252.453849 483.808133 
L 253.867849 482.092941 
L 255.28185 477.718639 
L 256.69585 480.597218 
L 258.109851 491.464221 
L 259.523852 495.017051 
L 260.937852 494.786467 
L 262.351853 476.194351 
L 263.765854 496.06329 
L 265.179854 498.291949 
L 266.593855 477.952537 
L 268.007856 480.164992 
L 269.421856 501.228037 
L 270.835857 489.878177 
L 272.249857 506.300154 
L 273.663858 504.050421 
L 275.077859 484.343314 
L 276.491859 477.507363 
L 277.90586 484.576481 
L 279.319861 498.546364 
L 280.733861 506.224274 
L 282.147862 499.367053 
L 283.561863 503.048195 
L 284.975863 474.267824 
L 286.389864 496.049339 
L 287.803864 504.527621 
L 289.217865 489.786644 
L 290.631866 476.498681 
L 292.045866 484.999759 
L 293.459867 485.932567 
L 294.873868 499.017633 
L 296.287868 479.293474 
L 297.701869 504.572062 
L 299.115869 496.662208 
L 300.52987 503.76728 
L 301.943871 491.441789 
L 303.357871 506.688145 
L 304.771872 512.840868 
L 306.185873 500.598011 
L 307.599873 509.5411 
L 309.013874 492.662996 
L 310.427875 507.911806 
L 311.841875 503.631003 
L 313.255876 510.148714 
L 314.669876 510.720938 
L 316.083877 517.116864 
L 317.497878 520.575021 
L 318.911878 505.858545 
L 320.325879 497.148341 
L 321.73988 503.140372 
L 323.15388 501.368478 
L 324.567881 519.001606 
L 325.981882 502.543053 
L 327.395882 515.941655 
L 328.809883 503.522056 
L 330.223883 495.768766 
L 331.637884 509.434252 
L 333.051885 507.290321 
L 334.465885 498.369837 
L 335.879886 510.787146 
L 337.293887 514.648192 
L 338.707887 506.932382 
L 340.121888 491.484469 
L 341.535889 505.906091 
L 342.949889 499.862944 
L 344.36389 509.845616 
L 345.77789 505.224751 
L 347.191891 518.333987 
L 348.605892 520.321633 
L 350.019892 513.191502 
L 351.433893 514.6319 
L 352.847894 507.871202 
L 354.261894 511.91006 
L 355.675895 501.698491 
L 357.089895 506.62414 
L 358.503896 507.93866 
L 359.917897 512.475249 
L 361.331897 492.509798 
L 362.745898 525.629308 
L 364.159899 498.6298 
L 365.573899 503.232315 
L 366.9879 515.189518 
L 368.401901 511.964403 
L 369.815901 510.706903 
L 371.229902 506.081241 
L 372.643902 516.190388 
L 374.057903 528.812896 
L 375.471904 531.000145 
L 376.885904 532.712357 
L 378.299905 514.864345 
L 379.713906 518.643957 
L 381.127906 519.488652 
L 382.541907 515.284126 
L 383.955908 517.878784 
L 385.369908 525.379458 
L 386.783909 516.674097 
L 388.197909 501.800765 
L 389.61191 522.885678 
L 391.025911 511.97284 
L 392.439911 518.972011 
L 393.853912 522.137307 
L 395.267913 511.089757 
L 396.681913 515.394281 
L 398.095914 508.911352 
L 399.509914 523.391254 
L 400.923915 521.666248 
L 402.337916 509.289884 
L 403.751916 507.82705 
L 405.165917 531.633583 
L 406.579918 514.597243 
L 407.993918 513.806827 
L 409.407919 528.974455 
L 410.82192 515.414851 
L 412.23592 507.090857 
L 413.649921 492.56907 
L 415.063921 518.954726 
L 416.477922 512.385862 
L 417.891923 511.259786 
L 419.305923 511.20287 
L 420.719924 517.405224 
L 422.133925 525.530986 
L 423.547925 519.215578 
L 424.961926 509.370387 
L 426.375927 500.436057 
L 427.789927 516.575096 
L 429.203928 510.938281 
L 430.617928 520.578369 
L 432.031929 506.956477 
L 433.44593 533.198232 
L 434.85993 528.666375 
L 436.273931 513.169405 
L 437.687932 512.82893 
L 439.101932 520.903418 
L 440.515933 536.762499 
L 441.929933 516.662072 
L 443.343934 516.590112 
L 444.757935 525.572642 
L 446.171935 520.241774 
L 447.585936 524.154588 
L 448.999937 515.25936 
L 450.413937 513.584524 
L 451.827938 518.759476 
L 453.241939 513.819209 
L 454.655939 528.038783 
L 456.06994 516.054134 
L 457.48394 532.726345 
L 458.897941 518.979731 
L 460.311942 523.962943 
L 461.725942 520.202394 
L 463.139943 533.922043 
L 464.553944 521.530736 
L 465.967944 517.074074 
L 467.381945 488.430754 
L 468.795946 514.206638 
L 470.209946 497.607757 
L 471.623947 520.678276 
L 473.037947 518.185878 
L 474.451948 508.584475 
L 475.865949 525.073137 
L 477.279949 518.931514 
L 478.69395 526.275539 
L 480.107951 513.672479 
L 481.521951 516.909409 
L 482.935952 538.348701 
L 484.349952 524.145815 
L 485.763953 525.719272 
L 487.177954 516.673936 
L 488.591954 530.944829 
L 490.005955 529.612378 
L 491.419956 525.167173 
L 492.833956 515.538569 
L 494.247957 518.05477 
L 495.661958 514.53075 
L 497.075958 528.68173 
L 498.489959 524.160506 
L 499.903959 520.405545 
L 501.31796 531.821597 
L 502.731961 528.642593 
L 504.145961 521.017373 
L 505.559962 528.934199 
L 506.973963 527.929737 
L 508.387963 519.940147 
L 509.801964 523.988879 
L 511.215965 528.7343 
L 514.043966 537.209537 
L 515.457966 523.852703 
L 516.871967 524.880427 
L 518.285968 522.177498 
L 519.699968 517.274909 
L 521.113969 519.493596 
L 522.52797 543.73988 
L 523.94197 522.282875 
L 525.355971 526.291292 
L 526.769971 536.261959 
L 528.183972 529.158473 
L 529.597973 527.497134 
L 531.011973 527.946177 
L 532.425974 531.662283 
L 533.839975 519.826512 
L 535.253975 525.605867 
L 536.667976 518.599821 
L 538.081977 521.080885 
L 539.495977 527.493239 
L 540.909978 516.735051 
L 542.323978 521.80852 
L 543.737979 533.345104 
L 545.15198 522.805303 
L 546.56598 532.321538 
L 547.979981 518.765389 
L 549.393982 528.582568 
L 550.807982 524.375035 
L 552.221983 548.890323 
L 553.635984 538.662829 
L 555.049984 508.369976 
L 556.463985 532.168598 
L 557.877985 522.96559 
L 559.291986 510.114561 
L 560.705987 512.466142 
L 562.119987 521.640989 
L 563.533988 528.935191 
L 564.947989 534.479747 
L 566.361989 527.714794 
L 567.77599 530.610431 
L 569.18999 509.749938 
L 570.603991 512.357206 
L 572.017992 531.62834 
L 573.431992 522.846348 
L 574.845993 538.625978 
L 576.259994 527.869576 
L 577.673994 528.565544 
L 579.087995 504.884188 
L 580.501996 516.154211 
L 581.915996 516.255423 
L 583.329997 512.103914 
L 584.743997 522.35064 
L 586.157998 528.621957 
L 587.571999 518.434437 
L 588.985999 531.845244 
L 590.4 521.940413 
L 591.814001 518.368063 
L 593.228001 523.293584 
L 594.642002 530.2995 
L 596.056003 525.358681 
L 597.470003 531.470045 
L 598.884004 532.808792 
L 600.298004 524.149465 
L 601.712005 530.057203 
L 603.126006 526.966373 
L 604.540006 529.976211 
L 605.954007 528.187007 
L 607.368008 539.769518 
L 608.782008 530.226209 
L 610.196009 521.509197 
L 611.61001 523.967006 
L 613.02401 525.938312 
L 614.438011 517.7283 
L 615.852011 520.396689 
L 617.266012 535.185099 
L 618.680013 516.593545 
L 620.094013 524.954172 
L 621.508014 522.009363 
L 622.922015 507.770087 
L 624.336015 508.542 
L 625.750016 520.104572 
L 627.164016 532.776347 
L 628.578017 524.684684 
L 629.992018 506.750276 
L 631.406018 529.741383 
L 632.820019 529.595127 
L 634.23402 545.785118 
L 635.64802 527.825236 
L 637.062021 520.790398 
L 638.476022 531.229515 
L 639.890022 518.733615 
L 641.304023 508.55026 
L 642.718023 518.621473 
L 644.132024 520.03325 
L 645.546025 529.065852 
L 646.960025 524.33377 
L 648.374026 518.089657 
L 649.788027 527.347895 
L 651.202027 530.024799 
L 652.616028 530.347484 
L 654.030029 523.933163 
L 655.444029 535.596317 
L 656.85803 531.638553 
L 658.27203 541.816174 
L 659.686031 529.930886 
L 661.100032 540.968428 
L 662.514032 528.24033 
L 663.928033 538.491734 
L 665.342034 524.489996 
L 666.756034 535.048981 
L 668.170035 527.090959 
L 669.584035 526.242555 
L 670.998036 533.071066 
L 672.412037 519.141536 
L 673.826037 532.701695 
L 675.240038 530.423603 
L 676.654039 528.448183 
L 678.068039 520.7589 
L 679.48204 531.65075 
L 680.896041 532.866218 
L 682.310041 539.002001 
L 683.724042 548.983992 
L 685.138042 518.039703 
L 686.552043 536.736448 
L 687.966044 527.604329 
L 689.380044 542.535199 
L 690.794045 531.712224 
L 692.208046 539.2057 
L 693.622046 545.808825 
L 695.036047 528.207854 
L 696.450048 532.494911 
L 697.864048 528.063598 
L 699.278049 524.586706 
L 700.692049 538.967229 
L 702.10605 546.254462 
L 703.520051 523.386368 
L 704.934051 524.388052 
L 706.348052 520.59938 
L 707.762053 533.224328 
L 709.176053 537.865404 
L 710.590054 541.157736 
L 712.004054 527.385687 
L 713.418055 528.348506 
L 714.832056 536.483024 
L 716.246056 536.777451 
L 717.660057 545.639502 
L 720.488058 526.15983 
L 721.902059 530.376734 
L 723.31606 537.091946 
L 724.73006 522.290953 
L 726.144061 534.070362 
L 727.558061 534.749555 
L 728.972062 524.152418 
L 730.386063 536.381988 
L 731.800063 542.427843 
L 733.214064 532.115099 
L 734.628065 519.812531 
L 736.042065 525.807068 
L 737.456066 527.476224 
L 738.870067 528.526373 
L 740.284067 532.381332 
L 741.698068 534.202684 
L 743.112068 533.36726 
L 744.526069 541.826908 
L 745.94007 536.495406 
L 747.35407 527.948308 
L 748.768071 522.615514 
L 750.182072 526.287635 
L 751.596072 528.586685 
L 753.010073 541.64423 
L 754.424073 526.844933 
L 755.838074 547.866291 
L 757.252075 544.914925 
L 758.666075 529.49475 
L 760.080076 517.959212 
L 761.494077 526.647179 
L 762.908077 532.457184 
L 764.322078 534.987963 
L 765.736079 539.58903 
L 767.150079 529.628413 
L 768.56408 529.936697 
L 769.97808 532.963264 
L 771.392081 531.640179 
L 772.806082 532.557782 
L 774.220082 544.057778 
L 775.634083 537.342909 
L 777.048084 539.362543 
L 778.462084 529.781323 
L 779.876085 527.320982 
L 781.290086 536.096247 
L 782.704086 528.663418 
L 784.118087 537.237298 
L 785.532087 521.024663 
L 786.946088 534.919104 
L 788.360089 550.677501 
L 789.774089 547.078364 
L 791.18809 539.013276 
L 792.602091 540.679216 
L 794.016091 535.086899 
L 795.430092 536.357857 
L 796.844092 540.679407 
L 798.258093 535.787334 
L 799.672094 541.194381 
L 801.086094 538.864026 
L 802.500095 543.39525 
L 803.914096 536.22319 
L 805.328096 532.118207 
L 806.742097 542.803507 
L 808.156098 532.80305 
L 809.570098 530.969183 
L 810.984099 529.765706 
L 812.398099 534.572036 
L 813.8121 517.615726 
L 815.226101 528.576545 
L 816.640101 530.936296 
L 818.054102 532.909915 
L 819.468103 536.766486 
L 820.882103 525.797635 
L 822.296104 513.185626 
L 823.710105 516.802474 
L 825.124105 532.528083 
L 826.538106 534.107225 
L 827.952106 521.251319 
L 829.366107 522.058058 
L 830.780108 532.951831 
L 832.194108 532.973243 
L 833.608109 541.214738 
L 835.02211 539.871593 
L 836.43611 549.130539 
L 837.850111 533.510138 
L 839.264111 534.365348 
L 840.678112 527.348151 
L 842.092113 535.836042 
L 843.506113 529.504721 
L 844.920114 541.98676 
L 846.334115 542.372176 
L 847.748115 544.033512 
L 849.162116 537.890903 
L 850.576117 537.152005 
L 851.990117 532.96873 
L 853.404118 537.683818 
L 854.818118 521.474973 
L 856.232119 532.946596 
L 857.64612 549.60551 
L 859.06012 544.545082 
L 860.474121 536.130484 
L 861.888122 536.159869 
L 863.302122 533.252834 
L 864.716123 540.024335 
L 866.130124 531.340389 
L 867.544124 538.740919 
L 868.958125 531.496338 
L 870.372125 528.656663 
L 871.786126 534.996911 
L 873.200127 538.009982 
L 874.614127 534.528689 
L 876.028128 524.061914 
L 877.442129 534.342175 
L 878.856129 527.355203 
L 880.27013 528.525584 
L 881.684131 535.311198 
L 883.098131 537.954017 
L 884.512132 525.62272 
L 885.926132 530.819627 
L 887.340133 541.883145 
L 888.754134 532.862391 
L 890.168134 538.156165 
L 891.582135 523.43737 
L 892.996136 530.059184 
L 894.410136 535.058285 
L 895.824137 531.077246 
L 897.238137 540.012983 
L 898.652138 547.759888 
L 900.066139 530.941326 
L 901.480139 544.896028 
L 904.308141 534.427167 
L 905.722141 525.368845 
L 907.136142 545.990197 
L 908.550143 542.018883 
L 909.964143 537.421605 
L 911.378144 534.948481 
L 912.792144 536.699673 
L 914.206145 549.655235 
L 915.620146 536.28313 
L 917.034146 538.0675 
L 918.448147 544.868553 
L 919.862148 544.515273 
L 921.276148 551.439677 
L 922.690149 538.72004 
L 924.10415 549.104119 
L 925.51815 536.800003 
L 926.932151 530.828658 
L 928.346151 544.367275 
L 929.760152 546.18958 
L 931.174153 541.512275 
L 932.588153 519.533971 
L 934.002154 531.234211 
L 935.416155 538.994953 
L 936.830155 550.08492 
L 938.244156 534.136805 
L 939.658156 546.625883 
L 941.072157 530.854183 
L 942.486158 553.187464 
L 943.900158 539.387191 
L 945.314159 529.011841 
L 946.72816 540.12862 
L 948.14216 539.647397 
L 949.556161 535.926398 
L 950.970162 538.996589 
L 952.384162 529.684773 
L 953.798163 525.143074 
L 955.212163 554.04 
L 956.626164 541.563842 
L 958.040165 543.557105 
L 959.454165 552.702537 
L 960.868166 545.972348 
L 962.282167 525.641717 
L 963.696167 541.141227 
L 965.110168 539.221013 
L 966.524169 541.571347 
L 967.938169 516.095977 
L 969.35217 522.447262 
L 970.76617 530.911599 
L 972.180171 532.893864 
L 973.594172 539.07159 
L 975.008172 536.868341 
L 976.422173 548.595343 
L 977.836174 539.726878 
L 979.250174 515.296114 
L 980.664175 533.498152 
L 982.078175 536.662476 
L 983.492176 534.894096 
L 984.906177 544.317715 
L 986.320177 541.118801 
L 987.734178 542.829087 
L 989.148179 546.88121 
L 990.562179 547.432143 
L 991.97618 535.196805 
L 993.390181 533.623999 
L 994.804181 541.53326 
L 996.218182 526.445097 
L 996.218182 526.445097 
" clip-path="url(#p35fd1f4402)" style="fill: none; stroke: #0000ff; stroke-width: 1.5; stroke-linecap: square"/>
   </g>
   <g id="line2d_11">
    <path d="M 184.581818 123.103572 
L 185.995819 163.3548 
L 187.409819 174.928589 
L 188.82382 188.805336 
L 190.237821 195.74167 
L 194.479823 233.021153 
L 195.893823 252.723938 
L 197.307824 266.661065 
L 198.721825 287.512733 
L 200.135825 290.256485 
L 201.549826 296.218351 
L 202.963826 319.303951 
L 204.377827 330.212368 
L 205.791828 349.594988 
L 207.205828 350.962432 
L 208.619829 339.065362 
L 210.03383 343.301922 
L 211.44783 375.173448 
L 212.861831 368.864418 
L 214.275831 380.37756 
L 215.689832 410.5892 
L 217.103833 426.622188 
L 218.517833 426.649533 
L 219.931834 439.518214 
L 221.345835 441.971791 
L 222.759835 447.497265 
L 224.173836 441.317473 
L 225.587837 424.088503 
L 227.001837 453.40043 
L 228.415838 466.490829 
L 229.829838 403.873781 
L 231.243839 468.957718 
L 232.65784 466.261604 
L 234.07184 466.150318 
L 235.485841 452.486708 
L 236.899842 472.33603 
L 238.313842 469.384107 
L 239.727843 481.064407 
L 241.141844 434.059603 
L 242.555844 482.819764 
L 243.969845 459.560502 
L 245.383845 477.873909 
L 246.797846 469.730945 
L 248.211847 494.26962 
L 249.625847 451.475182 
L 251.039848 470.152332 
L 252.453849 457.824669 
L 253.867849 464.216693 
L 255.28185 493.221656 
L 256.69585 496.877783 
L 258.109851 493.891161 
L 259.523852 488.852146 
L 260.937852 488.271672 
L 262.351853 481.417524 
L 263.765854 429.110921 
L 265.179854 450.475579 
L 266.593855 466.2714 
L 268.007856 451.425919 
L 269.421856 489.464498 
L 270.835857 506.076483 
L 272.249857 507.411931 
L 273.663858 479.417905 
L 275.077859 470.927458 
L 276.491859 501.133582 
L 277.90586 500.890257 
L 279.319861 503.236176 
L 280.733861 472.741565 
L 282.147862 477.326713 
L 283.561863 457.517976 
L 284.975863 412.195215 
L 286.389864 500.04511 
L 287.803864 484.946655 
L 289.217865 432.856347 
L 290.631866 471.305527 
L 292.045866 497.260404 
L 293.459867 500.058916 
L 294.873868 490.732483 
L 296.287868 447.140315 
L 297.701869 499.039741 
L 299.115869 489.657297 
L 300.52987 482.766771 
L 301.943871 506.109361 
L 303.357871 493.324258 
L 304.771872 499.710275 
L 306.185873 489.177716 
L 307.599873 486.995985 
L 309.013874 504.426507 
L 310.427875 504.873728 
L 311.841875 511.143012 
L 313.255876 503.588977 
L 314.669876 509.550512 
L 316.083877 497.029785 
L 317.497878 501.359351 
L 318.911878 499.524977 
L 320.325879 459.750438 
L 321.73988 478.144484 
L 324.567881 487.089198 
L 325.981882 470.904422 
L 327.395882 484.139992 
L 328.809883 464.516675 
L 330.223883 449.70322 
L 331.637884 509.943608 
L 333.051885 509.676291 
L 334.465885 516.549251 
L 335.879886 503.045057 
L 337.293887 495.037389 
L 338.707887 487.881333 
L 340.121888 492.665642 
L 341.535889 485.387546 
L 342.949889 459.602433 
L 344.36389 461.112177 
L 345.77789 505.642668 
L 347.191891 509.051554 
L 348.605892 495.179236 
L 350.019892 504.435468 
L 351.433893 492.509029 
L 352.847894 506.098024 
L 354.261894 427.658957 
L 355.675895 489.624086 
L 357.089895 459.565831 
L 358.503896 524.836722 
L 359.917897 522.04202 
L 361.331897 482.569676 
L 362.745898 490.758549 
L 364.159899 485.494587 
L 365.573899 491.791002 
L 366.9879 508.28246 
L 368.401901 489.493377 
L 369.815901 491.445958 
L 371.229902 508.787361 
L 372.643902 491.806893 
L 374.057903 517.151277 
L 375.471904 516.133122 
L 376.885904 513.155889 
L 378.299905 500.075048 
L 379.713906 527.784109 
L 381.127906 502.947575 
L 382.541907 523.403499 
L 383.955908 489.726663 
L 385.369908 502.653059 
L 386.783909 453.346423 
L 388.197909 453.568702 
L 389.61191 515.674871 
L 391.025911 512.29785 
L 392.439911 480.162053 
L 395.267913 507.02369 
L 396.681913 512.602944 
L 398.095914 510.620016 
L 399.509914 488.443059 
L 400.923915 504.339956 
L 402.337916 450.919941 
L 403.751916 514.267837 
L 405.165917 495.831118 
L 406.579918 515.450752 
L 407.993918 502.251897 
L 409.407919 478.136682 
L 410.82192 511.776905 
L 412.23592 434.847711 
L 413.649921 479.815723 
L 415.063921 509.899198 
L 416.477922 443.785545 
L 417.891923 489.910933 
L 419.305923 475.193329 
L 420.719924 515.230405 
L 422.133925 505.238623 
L 423.547925 517.299345 
L 424.961926 490.423705 
L 426.375927 517.027453 
L 427.789927 496.462164 
L 429.203928 511.601096 
L 430.617928 496.027202 
L 433.44593 521.4971 
L 434.85993 509.85131 
L 436.273931 519.842679 
L 437.687932 522.325291 
L 439.101932 477.362092 
L 440.515933 485.553715 
L 441.929933 420.59558 
L 443.343934 503.954344 
L 444.757935 522.019894 
L 446.171935 515.427185 
L 447.585936 519.414465 
L 448.999937 514.097175 
L 450.413937 474.101276 
L 451.827938 487.899964 
L 453.241939 506.945158 
L 454.655939 483.570789 
L 456.06994 491.788369 
L 457.48394 472.225358 
L 458.897941 493.485979 
L 460.311942 465.875711 
L 461.725942 485.956447 
L 463.139943 508.787197 
L 464.553944 513.056538 
L 465.967944 441.586102 
L 467.381945 494.107177 
L 468.795946 496.453519 
L 470.209946 502.790052 
L 471.623947 504.188836 
L 473.037947 485.908217 
L 474.451948 489.191018 
L 475.865949 527.084107 
L 477.279949 498.182239 
L 478.69395 531.075461 
L 480.107951 508.701992 
L 481.521951 505.394719 
L 482.935952 435.639007 
L 484.349952 522.124738 
L 485.763953 500.8916 
L 487.177954 507.490082 
L 488.591954 508.635072 
L 490.005955 506.617093 
L 491.419956 507.978414 
L 492.833956 501.905754 
L 494.247957 488.044683 
L 495.661958 453.697273 
L 497.075958 518.697429 
L 498.489959 495.109552 
L 501.31796 506.068017 
L 502.731961 509.607548 
L 504.145961 528.154142 
L 505.559962 520.516713 
L 506.973963 527.949626 
L 508.387963 516.195252 
L 509.801964 520.266603 
L 511.215965 513.327861 
L 512.629965 514.629388 
L 514.043966 507.211012 
L 515.457966 503.824747 
L 516.871967 527.126921 
L 518.285968 517.538595 
L 519.699968 511.442866 
L 521.113969 517.735579 
L 522.52797 502.316643 
L 523.94197 509.665963 
L 525.355971 512.407415 
L 526.769971 514.679494 
L 528.183972 524.534523 
L 529.597973 424.17443 
L 531.011973 519.100533 
L 532.425974 521.283764 
L 533.839975 516.283495 
L 535.253975 489.224552 
L 536.667976 529.778742 
L 538.081977 515.879005 
L 539.495977 499.723371 
L 540.909978 473.578237 
L 542.323978 497.868768 
L 543.737979 526.354865 
L 545.15198 508.984277 
L 546.56598 480.812246 
L 547.979981 515.563209 
L 549.393982 518.348268 
L 550.807982 517.73555 
L 552.221983 501.398784 
L 553.635984 499.055486 
L 555.049984 515.466235 
L 556.463985 489.651146 
L 557.877985 508.88788 
L 559.291986 508.703275 
L 560.705987 517.101701 
L 562.119987 508.966451 
L 563.533988 516.041415 
L 564.947989 513.99066 
L 566.361989 486.435275 
L 567.77599 468.629981 
L 569.18999 493.458695 
L 570.603991 472.610594 
L 572.017992 514.801176 
L 573.431992 508.789116 
L 574.845993 499.960864 
L 576.259994 499.491716 
L 577.673994 480.272793 
L 579.087995 492.163298 
L 580.501996 469.777165 
L 581.915996 517.140467 
L 583.329997 482.171963 
L 584.743997 500.190891 
L 586.157998 495.953504 
L 587.571999 522.455274 
L 588.985999 513.607264 
L 590.4 516.317167 
L 591.814001 510.791309 
L 593.228001 518.640189 
L 594.642002 484.182682 
L 596.056003 500.406863 
L 597.470003 459.276775 
L 598.884004 506.578708 
L 600.298004 517.121639 
L 601.712005 477.1878 
L 603.126006 522.405382 
L 604.540006 522.077097 
L 605.954007 505.081036 
L 607.368008 516.077439 
L 608.782008 525.11399 
L 610.196009 518.006965 
L 611.61001 515.651858 
L 613.02401 522.166419 
L 614.438011 487.084927 
L 615.852011 469.688962 
L 617.266012 448.382175 
L 618.680013 476.045038 
L 620.094013 508.748048 
L 621.508014 519.290583 
L 622.922015 420.361988 
L 624.336015 496.937886 
L 625.750016 460.049478 
L 627.164016 525.974152 
L 628.578017 500.990751 
L 629.992018 501.350311 
L 631.406018 494.923748 
L 632.820019 490.96741 
L 634.23402 525.908718 
L 635.64802 508.978632 
L 637.062021 529.166214 
L 638.476022 501.094757 
L 639.890022 512.67559 
L 641.304023 472.714255 
L 642.718023 510.573075 
L 644.132024 486.454101 
L 645.546025 500.756534 
L 646.960025 499.433244 
L 648.374026 495.201171 
L 649.788027 515.923801 
L 651.202027 524.407344 
L 652.616028 518.047661 
L 654.030029 524.039507 
L 655.444029 533.00175 
L 656.85803 499.846051 
L 658.27203 522.352636 
L 659.686031 519.134602 
L 661.100032 518.816568 
L 662.514032 517.131951 
L 663.928033 492.317729 
L 665.342034 521.168919 
L 666.756034 525.423399 
L 668.170035 506.697058 
L 669.584035 495.435173 
L 670.998036 510.111637 
L 672.412037 496.951958 
L 673.826037 513.152744 
L 675.240038 524.836731 
L 676.654039 521.348926 
L 678.068039 515.120984 
L 679.48204 521.824644 
L 680.896041 500.82697 
L 682.310041 525.872666 
L 683.724042 517.942699 
L 686.552043 529.939225 
L 687.966044 522.2135 
L 689.380044 521.55161 
L 690.794045 528.942449 
L 692.208046 524.304299 
L 693.622046 531.748297 
L 695.036047 526.649574 
L 696.450048 522.560839 
L 697.864048 519.809956 
L 699.278049 515.82697 
L 700.692049 524.971889 
L 702.10605 470.236664 
L 703.520051 524.903544 
L 704.934051 503.812067 
L 706.348052 521.477248 
L 707.762053 525.431091 
L 709.176053 510.277434 
L 712.004054 525.002919 
L 713.418055 506.455487 
L 714.832056 506.968639 
L 716.246056 512.228335 
L 717.660057 522.691376 
L 719.074058 479.840316 
L 720.488058 496.603248 
L 721.902059 521.520187 
L 723.31606 518.899091 
L 724.73006 456.344525 
L 726.144061 520.643639 
L 727.558061 529.461799 
L 728.972062 526.057888 
L 730.386063 529.313849 
L 731.800063 518.39874 
L 733.214064 531.536731 
L 734.628065 524.931064 
L 736.042065 523.521493 
L 737.456066 525.862026 
L 738.870067 539.518126 
L 740.284067 518.847947 
L 741.698068 530.25674 
L 743.112068 528.188939 
L 744.526069 534.21832 
L 745.94007 529.187751 
L 747.35407 531.703536 
L 748.768071 517.294963 
L 750.182072 511.622362 
L 751.596072 500.374092 
L 753.010073 516.07471 
L 754.424073 502.163853 
L 755.838074 499.448682 
L 757.252075 516.491243 
L 758.666075 522.108754 
L 760.080076 498.937154 
L 761.494077 531.094909 
L 762.908077 508.629047 
L 764.322078 507.144763 
L 765.736079 533.068813 
L 767.150079 525.042961 
L 768.56408 509.244879 
L 769.97808 489.145884 
L 771.392081 529.174046 
L 772.806082 506.827386 
L 774.220082 525.134951 
L 775.634083 527.070997 
L 777.048084 510.493692 
L 778.462084 512.016247 
L 779.876085 490.259995 
L 781.290086 535.069929 
L 782.704086 523.113891 
L 784.118087 519.82231 
L 785.532087 505.186365 
L 786.946088 523.57507 
L 788.360089 514.101609 
L 789.774089 522.51817 
L 791.18809 515.419799 
L 792.602091 527.171606 
L 794.016091 521.477296 
L 795.430092 519.410749 
L 796.844092 521.424955 
L 798.258093 533.841605 
L 799.672094 527.988351 
L 801.086094 533.303939 
L 802.500095 526.730732 
L 803.914096 522.834563 
L 805.328096 535.062418 
L 806.742097 494.784964 
L 808.156098 521.391188 
L 809.570098 507.529495 
L 810.984099 504.344685 
L 812.398099 527.698325 
L 813.8121 498.677749 
L 815.226101 516.739443 
L 816.640101 508.899404 
L 818.054102 517.237971 
L 819.468103 531.166317 
L 822.296104 498.708806 
L 823.710105 527.130142 
L 825.124105 488.811714 
L 826.538106 515.652878 
L 827.952106 511.197279 
L 829.366107 478.083441 
L 830.780108 512.692444 
L 832.194108 533.655166 
L 833.608109 531.027038 
L 835.02211 519.51047 
L 836.43611 533.509311 
L 837.850111 519.642204 
L 839.264111 530.244491 
L 840.678112 515.669059 
L 842.092113 522.055691 
L 843.506113 519.72735 
L 844.920114 532.602686 
L 846.334115 506.416873 
L 847.748115 501.336592 
L 849.162116 513.013774 
L 850.576117 528.738437 
L 851.990117 516.988782 
L 853.404118 514.791909 
L 854.818118 495.41466 
L 857.64612 525.991823 
L 859.06012 533.262777 
L 860.474121 529.967882 
L 861.888122 528.539619 
L 863.302122 531.332595 
L 864.716123 496.302416 
L 866.130124 527.849876 
L 867.544124 534.939026 
L 868.958125 522.41885 
L 870.372125 522.443711 
L 871.786126 525.002761 
L 873.200127 514.470737 
L 874.614127 523.589961 
L 876.028128 522.304662 
L 877.442129 510.199323 
L 878.856129 511.115236 
L 880.27013 509.668606 
L 881.684131 518.243706 
L 883.098131 523.620901 
L 884.512132 506.637101 
L 885.926132 527.414771 
L 887.340133 520.474108 
L 888.754134 508.211419 
L 890.168134 509.850279 
L 891.582135 524.680132 
L 892.996136 533.45901 
L 894.410136 525.561449 
L 895.824137 515.753465 
L 897.238137 538.201095 
L 898.652138 526.604409 
L 900.066139 475.621405 
L 901.480139 489.716289 
L 902.89414 527.188548 
L 904.308141 516.230012 
L 905.722141 522.360985 
L 907.136142 518.321855 
L 908.550143 525.762916 
L 909.964143 522.721506 
L 911.378144 512.131702 
L 912.792144 516.753325 
L 914.206145 529.907449 
L 915.620146 519.809778 
L 917.034146 521.65095 
L 918.448147 527.396232 
L 919.862148 508.214854 
L 921.276148 538.409813 
L 924.10415 520.652372 
L 925.51815 487.027161 
L 926.932151 526.222678 
L 928.346151 509.697091 
L 929.760152 536.270002 
L 931.174153 513.391651 
L 932.588153 524.335378 
L 934.002154 538.804751 
L 935.416155 531.08238 
L 936.830155 526.796475 
L 938.244156 529.177308 
L 939.658156 509.810539 
L 941.072157 510.602839 
L 942.486158 520.577778 
L 943.900158 414.068266 
L 945.314159 516.13371 
L 946.72816 522.556425 
L 948.14216 526.62179 
L 950.970162 512.113184 
L 952.384162 529.880558 
L 953.798163 520.359393 
L 955.212163 515.966677 
L 956.626164 507.21246 
L 958.040165 520.554219 
L 959.454165 523.670521 
L 960.868166 527.744716 
L 962.282167 525.449451 
L 963.696167 522.424917 
L 965.110168 536.93217 
L 966.524169 529.555009 
L 967.938169 474.794969 
L 969.35217 529.414377 
L 970.76617 528.092476 
L 972.180171 536.248185 
L 973.594172 516.807689 
L 975.008172 503.295932 
L 976.422173 504.378466 
L 977.836174 484.83591 
L 979.250174 525.005558 
L 980.664175 528.845421 
L 982.078175 521.091629 
L 983.492176 521.225645 
L 984.906177 528.529459 
L 986.320177 527.67006 
L 987.734178 511.969054 
L 989.148179 521.720422 
L 990.562179 513.486279 
L 991.97618 518.326866 
L 993.390181 517.467414 
L 996.218182 499.131566 
L 996.218182 499.131566 
" clip-path="url(#p35fd1f4402)" style="fill: none; stroke: #ff0000; stroke-width: 1.5; stroke-linecap: square"/>
   </g>
   <g id="patch_3">
    <path d="M 144 576.72 
L 144 77.76 
" style="fill: none; stroke: #000000; stroke-width: 0.8; stroke-linejoin: miter; stroke-linecap: square"/>
   </g>
   <g id="patch_4">
    <path d="M 1036.8 576.72 
L 1036.8 77.76 
" style="fill: none; stroke: #000000; stroke-width: 0.8; stroke-linejoin: miter; stroke-linecap: square"/>
   </g>
   <g id="patch_5">
    <path d="M 144 576.72 
L 1036.8 576.72 
" style="fill: none; stroke: #000000; stroke-width: 0.8; stroke-linejoin: miter; stroke-linecap: square"/>
   </g>
   <g id="patch_6">
    <path d="M 144 77.76 
L 1036.8 77.76 
" style="fill: none; stroke: #000000; stroke-width: 0.8; stroke-linejoin: miter; stroke-linecap: square"/>
   </g>
   <g id="legend_1">
    <g id="patch_7">
     <path d="M 948.565625 115.11625 
L 1029.8 115.11625 
Q 1031.8 115.11625 1031.8 113.11625 
L 1031.8 84.76 
Q 1031.8 82.76 1029.8 82.76 
L 948.565625 82.76 
Q 946.565625 82.76 946.565625 84.76 
L 946.565625 113.11625 
Q 946.565625 115.11625 948.565625 115.11625 
z
" style="fill: #ffffff; opacity: 0.8; stroke: #cccccc; stroke-linejoin: miter"/>
    </g>
    <g id="line2d_12">
     <path d="M 950.565625 90.858437 
L 960.565625 90.858437 
L 970.565625 90.858437 
" style="fill: none; stroke: #0000ff; stroke-width: 1.5; stroke-linecap: square"/>
    </g>
    <g id="text_9">
     <!-- training -->
     <g transform="translate(978.565625 94.358437) scale(0.1 -0.1)">
      <defs>
       <path id="DejaVuSans-74" d="M 1172 4494 
L 1172 3500 
L 2356 3500 
L 2356 3053 
L 1172 3053 
L 1172 1153 
Q 1172 725 1289 603 
Q 1406 481 1766 481 
L 2356 481 
L 2356 0 
L 1766 0 
Q 1100 0 847 248 
Q 594 497 594 1153 
L 594 3053 
L 172 3053 
L 172 3500 
L 594 3500 
L 594 4494 
L 1172 4494 
z
" transform="scale(0.015625)"/>
       <path id="DejaVuSans-72" d="M 2631 2963 
Q 2534 3019 2420 3045 
Q 2306 3072 2169 3072 
Q 1681 3072 1420 2755 
Q 1159 2438 1159 1844 
L 1159 0 
L 581 0 
L 581 3500 
L 1159 3500 
L 1159 2956 
Q 1341 3275 1631 3429 
Q 1922 3584 2338 3584 
Q 2397 3584 2469 3576 
Q 2541 3569 2628 3553 
L 2631 2963 
z
" transform="scale(0.015625)"/>
       <path id="DejaVuSans-61" d="M 2194 1759 
Q 1497 1759 1228 1600 
Q 959 1441 959 1056 
Q 959 750 1161 570 
Q 1363 391 1709 391 
Q 2188 391 2477 730 
Q 2766 1069 2766 1631 
L 2766 1759 
L 2194 1759 
z
M 3341 1997 
L 3341 0 
L 2766 0 
L 2766 531 
Q 2569 213 2275 61 
Q 1981 -91 1556 -91 
Q 1019 -91 701 211 
Q 384 513 384 1019 
Q 384 1609 779 1909 
Q 1175 2209 1959 2209 
L 2766 2209 
L 2766 2266 
Q 2766 2663 2505 2880 
Q 2244 3097 1772 3097 
Q 1472 3097 1187 3025 
Q 903 2953 641 2809 
L 641 3341 
Q 956 3463 1253 3523 
Q 1550 3584 1831 3584 
Q 2591 3584 2966 3190 
Q 3341 2797 3341 1997 
z
" transform="scale(0.015625)"/>
       <path id="DejaVuSans-69" d="M 603 3500 
L 1178 3500 
L 1178 0 
L 603 0 
L 603 3500 
z
M 603 4863 
L 1178 4863 
L 1178 4134 
L 603 4134 
L 603 4863 
z
" transform="scale(0.015625)"/>
       <path id="DejaVuSans-6e" d="M 3513 2113 
L 3513 0 
L 2938 0 
L 2938 2094 
Q 2938 2591 2744 2837 
Q 2550 3084 2163 3084 
Q 1697 3084 1428 2787 
Q 1159 2491 1159 1978 
L 1159 0 
L 581 0 
L 581 3500 
L 1159 3500 
L 1159 2956 
Q 1366 3272 1645 3428 
Q 1925 3584 2291 3584 
Q 2894 3584 3203 3211 
Q 3513 2838 3513 2113 
z
" transform="scale(0.015625)"/>
       <path id="DejaVuSans-67" d="M 2906 1791 
Q 2906 2416 2648 2759 
Q 2391 3103 1925 3103 
Q 1463 3103 1205 2759 
Q 947 2416 947 1791 
Q 947 1169 1205 825 
Q 1463 481 1925 481 
Q 2391 481 2648 825 
Q 2906 1169 2906 1791 
z
M 3481 434 
Q 3481 -459 3084 -895 
Q 2688 -1331 1869 -1331 
Q 1566 -1331 1297 -1286 
Q 1028 -1241 775 -1147 
L 775 -588 
Q 1028 -725 1275 -790 
Q 1522 -856 1778 -856 
Q 2344 -856 2625 -561 
Q 2906 -266 2906 331 
L 2906 616 
Q 2728 306 2450 153 
Q 2172 0 1784 0 
Q 1141 0 747 490 
Q 353 981 353 1791 
Q 353 2603 747 3093 
Q 1141 3584 1784 3584 
Q 2172 3584 2450 3431 
Q 2728 3278 2906 2969 
L 2906 3500 
L 3481 3500 
L 3481 434 
z
" transform="scale(0.015625)"/>
      </defs>
      <use xlink:href="#DejaVuSans-74"/>
      <use xlink:href="#DejaVuSans-72" x="39.208984"/>
      <use xlink:href="#DejaVuSans-61" x="80.322266"/>
      <use xlink:href="#DejaVuSans-69" x="141.601562"/>
      <use xlink:href="#DejaVuSans-6e" x="169.384766"/>
      <use xlink:href="#DejaVuSans-69" x="232.763672"/>
      <use xlink:href="#DejaVuSans-6e" x="260.546875"/>
      <use xlink:href="#DejaVuSans-67" x="323.925781"/>
     </g>
    </g>
    <g id="line2d_13">
     <path d="M 950.565625 105.536562 
L 960.565625 105.536562 
L 970.565625 105.536562 
" style="fill: none; stroke: #ff0000; stroke-width: 1.5; stroke-linecap: square"/>
    </g>
    <g id="text_10">
     <!-- validation -->
     <g transform="translate(978.565625 109.036562) scale(0.1 -0.1)">
      <defs>
       <path id="DejaVuSans-76" d="M 191 3500 
L 800 3500 
L 1894 563 
L 2988 3500 
L 3597 3500 
L 2284 0 
L 1503 0 
L 191 3500 
z
" transform="scale(0.015625)"/>
       <path id="DejaVuSans-6c" d="M 603 4863 
L 1178 4863 
L 1178 0 
L 603 0 
L 603 4863 
z
" transform="scale(0.015625)"/>
       <path id="DejaVuSans-64" d="M 2906 2969 
L 2906 4863 
L 3481 4863 
L 3481 0 
L 2906 0 
L 2906 525 
Q 2725 213 2448 61 
Q 2172 -91 1784 -91 
Q 1150 -91 751 415 
Q 353 922 353 1747 
Q 353 2572 751 3078 
Q 1150 3584 1784 3584 
Q 2172 3584 2448 3432 
Q 2725 3281 2906 2969 
z
M 947 1747 
Q 947 1113 1208 752 
Q 1469 391 1925 391 
Q 2381 391 2643 752 
Q 2906 1113 2906 1747 
Q 2906 2381 2643 2742 
Q 2381 3103 1925 3103 
Q 1469 3103 1208 2742 
Q 947 2381 947 1747 
z
" transform="scale(0.015625)"/>
       <path id="DejaVuSans-6f" d="M 1959 3097 
Q 1497 3097 1228 2736 
Q 959 2375 959 1747 
Q 959 1119 1226 758 
Q 1494 397 1959 397 
Q 2419 397 2687 759 
Q 2956 1122 2956 1747 
Q 2956 2369 2687 2733 
Q 2419 3097 1959 3097 
z
M 1959 3584 
Q 2709 3584 3137 3096 
Q 3566 2609 3566 1747 
Q 3566 888 3137 398 
Q 2709 -91 1959 -91 
Q 1206 -91 779 398 
Q 353 888 353 1747 
Q 353 2609 779 3096 
Q 1206 3584 1959 3584 
z
" transform="scale(0.015625)"/>
      </defs>
      <use xlink:href="#DejaVuSans-76"/>
      <use xlink:href="#DejaVuSans-61" x="59.179688"/>
      <use xlink:href="#DejaVuSans-6c" x="120.458984"/>
      <use xlink:href="#DejaVuSans-69" x="148.242188"/>
      <use xlink:href="#DejaVuSans-64" x="176.025391"/>
      <use xlink:href="#DejaVuSans-61" x="239.501953"/>
      <use xlink:href="#DejaVuSans-74" x="300.78125"/>
      <use xlink:href="#DejaVuSans-69" x="339.990234"/>
      <use xlink:href="#DejaVuSans-6f" x="367.773438"/>
      <use xlink:href="#DejaVuSans-6e" x="428.955078"/>
     </g>
    </g>
   </g>
  </g>
 </g>
 <defs>
  <clipPath id="p35fd1f4402">
   <rect x="144" y="77.76" width="892.8" height="498.96"/>
  </clipPath>
 </defs>
</svg>
